<svg xmlns="http://www.w3.org/2000/svg" width="32.5" height="26" viewBox="0 0 32.5 26">
  <path id="comments-solid" d="M21.123,8.938C21.123,4,16.4,0,10.561,0S0,4,0,8.938A8.046,8.046,0,0,0,2.114,14.29,13.869,13.869,0,0,1,.1,17.219a.391.391,0,0,0-.073.424.383.383,0,0,0,.357.232,10.541,10.541,0,0,0,4.862-1.221,12.028,12.028,0,0,0,5.312,1.221C16.4,17.875,21.123,13.873,21.123,8.938Zm9.323,13.594A8.438,8.438,0,0,0,32.5,17.063c0-4.936-4.367-8.937-9.75-8.937l-.047,0c.022.267.047.536.047.81,0,5.008-4.046,9.2-9.45,10.283A9.583,9.583,0,0,0,22.748,26a10.4,10.4,0,0,0,4.715-1.116A10.474,10.474,0,0,0,32.107,26a.384.384,0,0,0,.356-.234.391.391,0,0,0-.073-.424A14.192,14.192,0,0,1,30.447,22.532Z" transform="translate(0.002)" fill="#fff"/>
</svg>
