<svg xmlns="http://www.w3.org/2000/svg" xmlns:xlink="http://www.w3.org/1999/xlink" width="595" height="595" viewBox="0 0 595 595">
  <defs>
    <clipPath id="clip-Web_1366_3">
      <rect width="595" height="595"/>
    </clipPath>
  </defs>
  <g id="Web_1366_3" data-name="Web 1366 – 3" clip-path="url(#clip-Web_1366_3)">
    <g id="Group_73" data-name="Group 73" transform="translate(1.198 102.198)">
      <circle id="Ellipse_10" data-name="Ellipse 10" cx="297.175" cy="297.175" r="297.175" transform="translate(-0.996 -101.918)" fill="#1e3c72"/>
      <ellipse id="Ellipse_11" data-name="Ellipse 11" cx="236.769" cy="236.769" rx="236.769" ry="236.769" transform="translate(59.41 -41.512)" fill="#284f93"/>
      <g id="g10" transform="translate(-103.198 -242.198)">
        <g id="g12" transform="translate(0 0)">
          <path id="path14" d="M862.4-5598.187H0v-862.4H862.4v862.4" transform="translate(0 6460.584)" fill="none"/>
          <path id="path16" d="M2478.892-4873.588c-60.309,19.475-82.58,42.2-81.1,99.554,3.627-12.638,9.8-17.98,16.818-22.721,21.68-14.646,23.958-19.756,33.186-43.072,5.565-14.06,11.914-27.458,31.1-33.761" transform="translate(-2077.659 5085.43)" fill="#1e3c73" fill-rule="evenodd"/>
          <path id="path18" d="M2704.913-4641.643c92.313-53.253,141.977,53.627,218.322,16.912-65.387-.731-61.437-28.37-104.089-52.494-46.442-26.268-104.485-15.607-114.233,35.582" transform="translate(-2343.845 4927.284)" fill="#1e3c73" fill-rule="evenodd"/>
          <path id="path20" d="M3155.277-4263.236c-5.35,14.877-17.324,23.69-34.976,27.29,41.96,43.112-9.04,89.861,44.586,149.142-72.145-23.491-47.307-61.315-74.221-107.6-19.039-32.745-42.521-54.377-82.338-66.258L2980.386-4269c-69.16-30.751-12.72-59.989,73.163-16.012,35.758,18.307,57.434,33.526,101.728,21.773" transform="translate(-2555.706 4594.81)" fill="#1e3c73" fill-rule="evenodd"/>
          <path id="path22" d="M3500.359-3803.764c-13.115,28.894,5.579,59.236,12.957,85.2,8.411,29.59-2.538,52.589-13.728,84.693-3.1,16.1-1.379,31.823,8.84,46.895,15.255-38.762,53.436-64.561,56.852-100.589,4.365-46.029-24.8-95.045-64.92-116.2" transform="translate(-3029.171 4158.412)" fill="#1e3c73" fill-rule="evenodd"/>
          <path id="path24" d="M2558.268-3209.112c-6.113,71.668-61.107,56.053-109.545,104.934-27.793,36.938-35.083,68.287-6.534,108.394,33.383-119.062,116.57-98.206,125.341-163.411,1.828-13.6-.658-29.792-9.262-49.917" transform="translate(-2100.441 3643.137)" fill="#1e3c73" fill-rule="evenodd"/>
          <path id="path26" d="M2271.835-3848.546c58.963-6.147,75.923,19.372,84.564,72.264-6.909-13.406-15.129-24.522-26.138-30.75,55.936,130.271-131.613,73.725-136.066,216.786-49.121-126.653,133.717-158.914,77.64-258.3" transform="translate(-1893.956 4197.996)" fill="#1e3c73" fill-rule="evenodd"/>
          <path id="path28" d="M2001.816-3655.551c11.117,43.139-75.828,86.727-93.788,48.815-2.216,36.15-1.583,41.6,18.067,66.882,2.422-45.743,59.652-60.474,62.653-30.366,14.29-21.341,58.8-42.535,13.069-85.331" transform="translate(-1652.57 4029.983)" fill="#1e3c73" fill-rule="evenodd"/>
          <path id="path30" d="M1972.188-4125.174c-7.724.126-14.836-.882-20.979-3.687-5.841-2.673-5.622-5.96-10.326-2.854-18.587,12.27-37.97,21.624-59.408,23.451-19.863.094-46.067,10.261-23.061,30.751-3.517,14.222-2.141,28.443,0,42.666,10.61-20.909,43.386,1.687,72.264-3.845-16.46-5.65-53.579-14.084-60.821-31.095-12.162-28.573,37.04-40.91,59.255-43.675q24.975-3.107,43.076-11.712" transform="translate(-1602.568 4443.678)" fill="#1e3c73" fill-rule="evenodd"/>
        </g>
      </g>
    </g>
  </g>
</svg>
