<svg xmlns="http://www.w3.org/2000/svg" width="79.369" height="60.441" viewBox="0 0 79.369 60.441">
  <g id="vertopal.com_scales" transform="translate(-368.1 913.444)">
    <path id="Path_1" data-name="Path 1" d="M407.756-913.324a11.308,11.308,0,0,0-.838,2.861,8.251,8.251,0,0,1-.289,1.137,1.862,1.862,0,0,1-.732-.318,8.954,8.954,0,0,0-4.952-1.281c-2.322,0-4.1.453-8.478,2.168-4.133,1.619-5.135,1.956-6.783,2.245a10.461,10.461,0,0,1-3.526-.029l-.626-.164.029-.53a1.461,1.461,0,0,0-.665-1.368,1.659,1.659,0,0,0-2.592,1.195,1.375,1.375,0,0,0,.491,1.089l.27.289L374.208-893.7c-2.678,6.783-4.962,12.554-5.068,12.833-.193.491-.212.5-.626.53l-.414.029.26.771c1.012,3,4.162,5.26,8.546,6.137a19.978,19.978,0,0,0,6.108,0,17.128,17.128,0,0,0,3.806-1.243,8.81,8.81,0,0,0,4.827-5.241l.125-.472h-.819l-4.875-12.361c-2.678-6.792-4.962-12.583-5.077-12.872l-.2-.52.222.164a5.217,5.217,0,0,0,2.7,1.127c1.609.25,3.2-.048,8.478-1.59,3.873-1.127,5.79-1.474,7.717-1.378a12.045,12.045,0,0,1,1.8.212,8.126,8.126,0,0,1,3.825,2.187l.4.414.029,2.572.029,2.563-.347.106c-.491.145-.857.462-.857.732,0,.308.337.549,1.05.771a1.984,1.984,0,0,1,.588.231c0,.029-.173,7.361-.385,16.292s-.385,16.677-.385,17.217v.992l-.376.193c-.462.231-.79.626-.713.848a1.313,1.313,0,0,0,.241.366c.154.173.164.241.067.482a7.462,7.462,0,0,0-.173,1.522l-.058,1.243-.886.173a12.292,12.292,0,0,0-3,1.021,5.918,5.918,0,0,0-.9.665,1.741,1.741,0,0,1-.694.424c-.347,0-3.372.636-4.837,1.012A66.081,66.081,0,0,0,386.8-853.1c-.106.067,6.84.1,21.08.1,12.255,0,21.186-.029,21.1-.077a60.319,60.319,0,0,0-6.648-2.274c-1.542-.424-5.607-1.3-6.041-1.3a.421.421,0,0,1-.318-.183,5.431,5.431,0,0,0-2-1.243,14.763,14.763,0,0,0-1.8-.53l-1.06-.231-.058-1.146a8.3,8.3,0,0,0-.173-1.5c-.106-.328-.1-.4.077-.617.318-.4.26-.665-.2-1a1.634,1.634,0,0,0-.53-.289c-.077,0-.125-.116-.125-.318,0-.164-.173-7.611-.385-16.542s-.385-16.591-.385-17.024v-.79l.4-.116c.617-.164,1.118-.443,1.185-.665.087-.279-.173-.636-.578-.78l-.337-.125v-5.434l.694-.636a8.23,8.23,0,0,1,3.314-1.753,8.914,8.914,0,0,1,2.351-.173c2.264,0,3.459.25,8.787,1.8A20.1,20.1,0,0,0,431-904.788a5.23,5.23,0,0,0,3.122-.752c.414-.26.54-.3.491-.173-.029.087-2.293,5.829-5.029,12.756l-4.971,12.6H423.8l.125.472a8.81,8.81,0,0,0,4.827,5.241,17.128,17.128,0,0,0,3.806,1.243,19.978,19.978,0,0,0,6.108,0,12.623,12.623,0,0,0,6.985-3.555,6.692,6.692,0,0,0,1.561-2.582l.26-.771-.414-.029c-.414-.029-.434-.039-.626-.53-.106-.279-2.389-6.05-5.068-12.833L436.5-906.031l.27-.289a1.359,1.359,0,0,0,.491-1.06,1.583,1.583,0,0,0-1.638-1.513,1.655,1.655,0,0,0-1.3.6c-.26.279-.289.357-.289.973v.665l-.337.106a9.888,9.888,0,0,1-1.542.154c-2.081.087-3.6-.289-8-2.014-4.962-1.946-6.532-2.4-8.883-2.544a9.369,9.369,0,0,0-5.068,1.118c-.578.308-.906.434-.935.357-.01-.067-.183-.751-.366-1.522-.356-1.484-.674-2.351-.886-2.438A.32.32,0,0,0,407.756-913.324Zm-18.084,32.883c0,.048-3.844.087-9.74.087-9.23,0-9.74-.01-9.7-.173.039-.145,9.211-23.412,9.586-24.3l.135-.337,4.865,12.313C387.485-886.078,389.672-880.49,389.672-880.441Zm50.832-12.39c2.63,6.677,4.808,12.217,4.837,12.3.039.164-.472.173-9.712.173-9.471,0-9.75-.01-9.7-.183.145-.549,9.663-24.549,9.721-24.5C435.676-905,437.863-899.508,440.5-892.831Z" transform="translate(0)" fill="#fff"/>
  </g>
</svg>
